<svg width="64" height="64" viewBox="0 0 64 64" fill="none" xmlns="http://www.w3.org/2000/svg">
  <!-- Background Circle with Gradient -->
  <circle cx="32" cy="32" r="32" fill="url(#bgGradient)" />
  
  <!-- Face Circle -->
  <circle cx="32" cy="32" r="22" fill="white" stroke="url(#faceGradient)" stroke-width="2"/>
  
  <!-- Hair -->
  <path d="M16 24 Q20 16 32 18 Q44 16 48 24 Q48 28 46 32 Q44 36 40 38 Q36 40 32 40 Q28 40 24 38 Q20 36 18 32 Q16 28 16 24 Z" fill="url(#hairGradient)"/>
  
  <!-- Eyes -->
  <ellipse cx="26" cy="28" rx="3" ry="4" fill="#06b6d4"/>
  <ellipse cx="38" cy="28" rx="3" ry="4" fill="#06b6d4"/>
  
  <!-- Eye Highlights -->
  <ellipse cx="27" cy="27" rx="1" ry="1.5" fill="white"/>
  <ellipse cx="39" cy="27" rx="1" ry="1.5" fill="white"/>
  
  <!-- Eyebrows -->
  <path d="M22 24 Q26 22 30 24" stroke="#0f766e" stroke-width="2" fill="none"/>
  <path d="M34 24 Q38 22 42 24" stroke="#0f766e" stroke-width="2" fill="none"/>
  
  <!-- Nose -->
  <ellipse cx="32" cy="32" rx="1" ry="1.5" fill="#f0f0f0"/>
  
  <!-- Smile -->
  <path d="M26 36 Q32 40 38 36" stroke="#06b6d4" stroke-width="2" fill="none" stroke-linecap="round"/>
  
  <!-- AI Circuit Pattern on Forehead -->
  <rect x="28" y="20" width="8" height="2" rx="1" fill="url(#circuitGradient)" opacity="0.7"/>
  <circle cx="30" cy="21" r="0.5" fill="#0f766e"/>
  <circle cx="34" cy="21" r="0.5" fill="#0f766e"/>
  
  <!-- Ear -->
  <ellipse cx="48" cy="32" rx="2" ry="3" fill="white" stroke="url(#faceGradient)" stroke-width="1"/>
  
  <!-- Earring -->
  <circle cx="48" cy="34" r="1" fill="#06b6d4" opacity="0.8"/>
  
  <!-- Neck -->
  <rect x="28" y="52" width="8" height="4" fill="white" stroke="url(#faceGradient)" stroke-width="1"/>
  
  <!-- Collar/Shirt -->
  <path d="M24 56 Q32 60 40 56" stroke="#0f766e" stroke-width="2" fill="none"/>
  
  <!-- AI Data Streams -->
  <g opacity="0.6">
    <path d="M12 20 Q16 24 20 20" stroke="#06b6d4" stroke-width="1" fill="none">
      <animate attributeName="opacity" values="0.6;0.2;0.6" dur="2s" repeatCount="indefinite"/>
    </path>
    <path d="M44 20 Q48 24 52 20" stroke="#06b6d4" stroke-width="1" fill="none">
      <animate attributeName="opacity" values="0.6;0.2;0.6" dur="2s" repeatCount="indefinite"/>
    </path>
    <path d="M12 44 Q16 40 20 44" stroke="#06b6d4" stroke-width="1" fill="none">
      <animate attributeName="opacity" values="0.6;0.2;0.6" dur="2s" repeatCount="indefinite"/>
    </path>
    <path d="M44 44 Q48 40 52 44" stroke="#06b6d4" stroke-width="1" fill="none">
      <animate attributeName="opacity" values="0.6;0.2;0.6" dur="2s" repeatCount="indefinite"/>
    </path>
  </g>
  
  <!-- Gradient Definitions -->
  <defs>
    <linearGradient id="bgGradient" x1="0%" y1="0%" x2="100%" y2="100%">
      <stop offset="0%" style="stop-color:#06b6d4;stop-opacity:1" />
      <stop offset="100%" style="stop-color:#0f766e;stop-opacity:1" />
    </linearGradient>
    
    <linearGradient id="faceGradient" x1="0%" y1="0%" x2="100%" y2="100%">
      <stop offset="0%" style="stop-color:#06b6d4;stop-opacity:0.3" />
      <stop offset="100%" style="stop-color:#0f766e;stop-opacity:0.3" />
    </linearGradient>
    
    <linearGradient id="hairGradient" x1="0%" y1="0%" x2="100%" y2="100%">
      <stop offset="0%" style="stop-color:#0f766e;stop-opacity:0.9" />
      <stop offset="100%" style="stop-color:#06b6d4;stop-opacity:0.9" />
    </linearGradient>
    
    <linearGradient id="circuitGradient" x1="0%" y1="0%" x2="100%" y2="100%">
      <stop offset="0%" style="stop-color:#06b6d4;stop-opacity:1" />
      <stop offset="100%" style="stop-color:#0f766e;stop-opacity:1" />
    </linearGradient>
  </defs>
</svg>